<svg width="526" height="407" viewBox="0 0 526 407" fill="none" xmlns="http://www.w3.org/2000/svg">
<path d="M394.228 377.676C394.207 381.293 393.409 384.711 392.055 387.912C390.718 391.068 388.793 393.908 386.361 396.338C381.185 401.456 375.027 404.04 367.884 404.04C364.209 404.04 360.742 403.368 357.429 401.972C354.065 400.628 351.167 398.715 348.786 396.338C346.353 393.908 344.438 391.065 343.093 387.808C341.695 384.604 341.023 381.243 341.023 377.676V311.819C341.023 304.014 342.524 296.57 345.577 289.488C348.63 282.354 352.927 275.996 358.464 270.465C363.899 265.037 370.265 260.798 377.407 257.749C384.601 254.698 392.055 253.199 399.87 253.199C411.411 253.199 422.228 256.455 432.476 262.917C442.258 256.455 453.075 253.199 464.927 253.199C472.794 253.199 480.454 254.698 487.907 257.749C495.308 260.798 501.933 265.037 507.678 270.465C513.526 275.996 518.029 282.354 521.238 289.539C524.446 296.725 526 304.117 526 311.819V377.676C526 381.243 525.326 384.604 523.981 387.808C522.584 391.065 520.721 393.908 518.288 396.338C515.855 398.715 513.009 400.628 509.8 401.972C506.539 403.368 503.175 404.04 499.655 404.04C495.981 404.04 492.514 403.368 489.149 401.972C485.837 400.628 482.938 398.715 480.506 396.338C478.125 393.908 476.24 391.051 474.864 387.808C473.498 384.591 472.694 381.242 472.794 377.676L474.62 312.67C474.661 311.223 473.204 310.145 471.656 309.056C470.049 307.924 467.205 308.46 465.341 308.46C464.151 308.46 463.064 308.77 462.08 309.39C461.149 310.01 460.476 310.785 460.062 311.819C460.062 312.491 459.57 313.201 459.673 313.408L460.218 376.953C460.248 380.57 459.513 384.022 458.147 387.291C456.77 390.586 454.886 393.443 452.454 395.873C450.073 398.302 447.226 400.163 443.966 401.559C440.757 402.903 437.341 403.575 433.822 403.575C430.198 403.575 426.679 402.903 423.366 401.559C420.054 400.163 417.156 398.302 414.723 395.873C412.187 393.34 410.212 390.448 408.875 387.24C407.521 383.987 406.801 380.57 406.856 376.953L407.805 314.709L407.36 313.258C407.36 311.862 405.846 310.81 404.734 309.752C403.621 308.692 402.354 308.201 400.905 308.201C399.818 308.201 398.679 308.459 397.592 309.028C396.453 309.545 395.625 310.269 395.004 311.199C395.004 311.819 394.711 312.384 394.814 312.59L394.621 313.978L394.228 377.676Z" fill="#FF4375"/>
<path d="M53.8269 274.704C53.9304 277.03 54.5517 279.201 55.6382 281.268C56.777 283.337 58.2776 285.146 60.1933 286.645C62.0046 288.092 64.023 289.177 66.2483 290.005C68.4743 290.831 70.6997 291.194 72.925 291.194C77.7904 291.194 81.9823 289.642 85.502 286.438C89.073 283.285 90.8843 279.408 90.9877 274.859V231.85C90.9877 228.335 91.7124 224.923 93.1103 221.614C94.5078 218.358 96.474 215.515 99.01 213.085C101.443 210.656 104.341 208.795 107.757 207.451C111.121 206.158 114.641 205.486 118.264 205.486C121.938 205.486 125.354 206.158 128.667 207.451C131.927 208.795 134.826 210.656 137.206 213.085C139.639 215.515 141.502 218.358 142.848 221.614C144.142 224.923 144.815 228.335 144.815 231.85V270.62C144.815 284.732 141.243 297.604 134.049 309.235C126.855 320.865 117.176 329.653 104.91 335.753V376.798C104.91 380.52 104.238 384.035 102.892 387.395C101.547 390.703 99.5794 393.65 97.0434 396.182C94.6112 398.612 91.764 400.525 88.4002 401.921C85.088 403.316 81.6201 404.04 78.1007 404.04C74.4775 404.04 70.9584 403.316 67.5428 401.921C64.178 400.525 61.2802 398.612 58.847 396.182C56.311 393.753 54.3444 390.858 52.9473 387.55C51.4982 384.19 50.8254 380.623 50.8254 376.798V339.217C37.5755 334.978 26.241 327.327 16.8208 316.214C12.3702 310.941 8.74767 305.099 5.9004 298.689C3.10568 292.28 1.29442 285.559 0.466621 278.477C0.155985 277.081 0 275.634 0 274.084V231.85C0 228.438 0.725374 225.078 2.226 221.77C3.67507 218.513 5.64165 215.567 8.17761 213.085C10.6105 210.656 13.5086 208.795 16.9249 207.451C20.289 206.158 23.8081 205.486 27.4313 205.486C34.7292 205.486 40.9911 208.02 46.2706 213.085C48.7028 215.515 50.5666 218.358 51.8604 221.614C53.1541 224.923 53.8269 228.335 53.8269 231.85V274.704Z" fill="#FF4375"/>
<path d="M394.228 172.19C394.176 175.809 393.4 179.221 392.055 182.425C390.708 185.578 388.793 188.422 386.361 190.852C381.185 195.969 375.027 198.554 367.884 198.554C364.209 198.554 360.742 197.882 357.429 196.486C354.065 195.142 351.167 193.229 348.786 190.852C346.353 188.422 344.438 185.578 343.093 182.322C341.695 179.118 341.023 175.757 341.023 172.19V106.333C341.023 98.5275 342.524 91.0837 345.577 84.0016C348.63 76.8677 352.927 70.5101 358.464 64.9787C363.899 59.5505 370.265 55.3122 377.407 52.2625C384.601 49.2121 392.055 47.713 399.87 47.713C411.411 47.713 422.228 50.9696 432.476 57.4312C442.258 50.9696 453.075 47.713 464.927 47.713C472.794 47.713 480.454 49.2121 487.907 52.2625C495.308 55.3122 501.933 59.5505 507.678 64.9787C513.526 70.5101 518.029 76.8677 521.238 84.0531C524.446 91.2388 526 98.6308 526 106.333V172.19C526 175.757 525.326 179.118 523.981 182.322C522.584 185.578 520.721 188.422 518.288 190.852C515.855 193.229 513.009 195.142 509.8 196.486C506.539 197.882 503.175 198.554 499.655 198.554C495.981 198.554 492.514 197.882 489.149 196.486C485.837 195.142 482.938 193.229 480.506 190.852C478.125 188.422 476.21 185.578 474.864 182.322C473.467 179.118 472.794 175.757 472.794 172.19V108.452C472.794 107.005 472.607 105.768 471.059 104.679C469.452 103.548 468.533 103.157 466.522 103.01C465.336 102.924 463.017 103.532 462.044 104.162C461.106 104.769 460.899 105.33 460.485 106.363C460.401 107.048 460.198 108.457 460.204 108.752L460.218 171.467C460.218 175.083 459.512 178.536 458.147 181.805C456.771 185.099 454.886 187.957 452.454 190.386C450.073 192.816 447.226 194.677 443.966 196.073C440.757 197.417 437.341 198.089 433.822 198.089C430.198 198.089 426.679 197.417 423.366 196.073C420.054 194.677 417.156 192.816 414.723 190.386C412.187 187.854 410.212 184.962 408.875 181.753C407.521 178.501 406.861 175.085 406.856 171.467L406.752 109.376L406.747 107.735C406.747 106.339 405.846 105.325 404.734 104.266C403.621 103.205 402.354 102.715 400.905 102.715C399.818 102.715 398.694 103.005 397.592 103.542C396.469 104.09 396.159 104.562 395.538 105.492C395.361 106.057 395.19 106.705 395.216 106.934L395.16 108.297L394.228 172.19Z" fill="#FF4375"/>
<path d="M224.571 128.458C224.571 131.043 225.088 133.524 226.175 135.799C227.21 138.073 228.66 139.934 230.471 141.484C232.283 143.087 234.456 144.328 236.94 145.155C239.373 146.034 242.013 146.447 244.704 146.447C249.88 146.447 253.813 144.948 256.556 141.898C259.299 138.9 260.748 134.506 260.955 128.717V78.1606C260.955 74.6969 261.68 71.3887 263.13 68.0799C264.63 64.8235 266.597 61.8774 269.133 59.3954C271.669 56.9661 274.619 55.0535 278.035 53.7098C281.399 52.314 284.919 51.6413 288.542 51.6413C292.061 51.6413 295.425 52.314 298.634 53.7098C301.791 55.0535 304.69 56.9661 307.174 59.3954C309.606 61.7738 311.469 64.6684 312.816 67.9248C314.11 71.2336 314.782 74.5933 314.782 78.1606V127.838C314.782 137.504 313.023 146.757 309.555 155.545C306.087 164.333 301.067 172.087 294.597 178.859C288.231 185.63 280.779 190.852 272.187 194.522C263.595 198.244 254.435 200.053 244.704 200.053C234.922 200.053 225.554 198.244 216.6 194.522C207.647 190.852 199.676 185.63 192.74 178.859C185.754 171.984 180.319 164.178 176.489 155.39C172.659 146.603 170.745 137.349 170.745 127.683V78.1606C170.745 74.5933 171.417 71.2336 172.867 67.9248C174.264 64.6684 176.178 61.7738 178.612 59.3954C181.148 56.9661 184.046 55.0535 187.255 53.7098C190.515 52.314 193.879 51.6413 197.399 51.6413C200.97 51.6413 204.386 52.314 207.75 53.7098C211.062 55.0535 214.013 56.9661 216.549 59.3954C219.033 61.8774 221 64.7717 222.449 68.0281C223.847 71.2336 224.571 74.5933 224.571 78.1606V128.458Z" fill="#FF4375"/>
<path d="M53.8269 69.218C53.9304 71.5439 54.5517 73.7147 55.6382 75.7821C56.777 77.8506 58.2776 79.6597 60.1933 81.1585C62.0046 82.6058 64.023 83.6914 66.2483 84.5185C68.4743 85.3453 70.6997 85.708 72.925 85.708C77.7904 85.708 81.9823 84.1567 85.502 80.9519C89.073 77.7988 90.8843 73.9216 90.9877 69.3727V26.3634C90.9877 22.8486 91.7124 19.4372 93.1103 16.1283C94.5078 12.872 96.474 10.0292 99.01 7.59895C101.443 5.16972 104.341 3.30885 107.757 1.96485C111.121 0.672 114.641 0 118.264 0C121.938 0 125.354 0.672 128.667 1.96485C131.927 3.30885 134.826 5.16972 137.206 7.59895C139.639 10.0292 141.502 12.872 142.848 16.1283C144.142 19.4372 144.815 22.8486 144.815 26.3634V65.1338C144.815 79.2461 141.243 92.1174 134.049 103.749C126.855 115.38 117.176 124.167 104.91 130.267V171.312C104.91 175.033 104.238 178.549 102.892 181.909C101.547 185.217 99.5794 188.164 97.0434 190.696C94.6112 193.126 91.764 195.039 88.4002 196.435C85.088 197.83 81.6201 198.554 78.1007 198.554C74.4775 198.554 70.9584 197.83 67.5428 196.435C64.178 195.039 61.2802 193.126 58.847 190.696C56.311 188.267 54.3444 185.372 52.9473 182.064C51.4982 178.704 50.8254 175.137 50.8254 171.312V133.731C37.5755 129.492 26.241 121.841 16.8208 110.727C12.3702 105.454 8.74767 99.6131 5.9004 93.203C3.10568 86.7936 1.29442 80.0733 0.466621 72.9912C0.155985 71.5954 0 70.1481 0 68.5975V26.3634C0 22.952 0.725374 19.5923 2.226 16.2834C3.67507 13.0271 5.64165 10.0807 8.17761 7.59895C10.6105 5.16972 13.5086 3.30885 16.9249 1.96485C20.289 0.672 23.8081 0 27.4313 0C34.7292 0 40.9911 2.53354 46.2706 7.59895C48.7028 10.0292 50.5666 12.872 51.8604 16.1283C53.1541 19.4372 53.8269 22.8486 53.8269 26.3634V69.218Z" fill="#FF4375"/>
<path d="M394.228 378.125C394.176 381.743 393.4 385.155 392.055 388.36C390.708 391.513 388.793 394.356 386.361 396.786C381.185 401.904 375.027 404.488 367.884 404.488C364.209 404.488 360.742 403.816 357.429 402.421C354.065 401.077 351.167 399.164 348.786 396.786C346.353 394.356 344.438 391.513 343.093 388.257C341.695 385.052 341.023 381.691 341.023 378.125V312.267C341.023 304.462 342.524 297.018 345.577 289.936C348.63 282.802 352.927 276.444 358.464 270.913C363.899 265.485 370.265 261.246 377.407 258.197C384.601 255.147 392.055 253.647 399.87 253.647C411.411 253.647 422.228 256.904 432.476 263.366C442.258 256.904 453.075 253.647 464.927 253.647C472.794 253.647 480.454 255.147 487.907 258.197C495.308 261.246 501.933 265.485 507.678 270.913C513.526 276.444 518.029 282.802 521.238 289.988C524.446 297.173 526 304.565 526 312.267V378.125C526 381.691 525.326 385.052 523.981 388.257C522.584 391.513 520.721 394.356 518.288 396.786C515.855 399.164 513.009 401.077 509.8 402.421C506.539 403.816 503.175 404.488 499.655 404.488C495.981 404.488 492.514 403.816 489.149 402.421C485.837 401.077 482.938 399.164 480.506 396.786C478.125 394.356 476.21 391.513 474.864 388.257C473.467 385.052 472.794 381.691 472.794 378.125V314.387C472.794 312.939 472.607 311.702 471.059 310.614C469.452 309.482 468.533 309.092 466.522 308.945C465.336 308.858 463.017 309.466 462.044 310.097C461.106 310.704 460.899 311.264 460.485 312.298C460.401 312.982 460.198 314.391 460.204 314.687L460.218 377.401C460.218 381.017 459.512 384.471 458.147 387.74C456.771 391.034 454.886 393.891 452.454 396.321C450.073 398.75 447.226 400.612 443.966 402.007C440.757 403.351 437.341 404.023 433.822 404.023C430.198 404.023 426.679 403.351 423.366 402.007C420.054 400.612 417.156 398.75 414.723 396.321C412.187 393.788 410.212 390.896 408.875 387.688C407.521 384.435 406.861 381.019 406.856 377.401L406.752 315.311L406.747 313.669C406.747 312.273 405.846 311.259 404.734 310.2C403.621 309.14 402.354 308.649 400.905 308.649C399.818 308.649 398.694 308.94 397.592 309.476C396.469 310.024 396.159 310.496 395.538 311.426C395.361 311.991 395.19 312.64 395.216 312.869L395.16 314.232L394.228 378.125Z" fill="#FF4375"/>
<path d="M170.745 332.493V313.633C170.745 310.066 171.417 306.706 172.867 303.398C174.264 300.141 176.178 297.247 178.612 294.868C181.148 292.437 184.046 290.526 187.255 289.182C190.515 287.786 193.879 287.114 197.399 287.114C200.97 287.114 204.386 287.786 207.75 289.182C211.062 290.526 214.013 292.437 216.549 294.868C219.033 297.349 221 300.244 222.449 303.501C223.847 306.706 224.571 310.066 224.571 313.633V332.493H170.745Z" fill="#FF4375"/>
<path d="M260.955 332.449V313.588C260.955 310.125 261.68 306.816 263.13 303.508C264.63 300.252 266.597 297.305 269.133 294.823C271.669 292.393 274.619 290.482 278.035 289.138C281.399 287.741 284.918 287.069 288.542 287.069C292.061 287.069 295.425 287.741 298.634 289.138C301.791 290.482 304.69 292.393 307.174 294.823C309.606 297.202 311.469 300.096 312.816 303.353C314.11 306.661 314.782 310.021 314.782 313.588V332.449H260.955Z" fill="#FF4375"/>
<path d="M224.571 333.944C224.571 336.529 225.088 339.009 226.175 341.284C227.21 343.558 228.66 345.418 230.471 346.971C232.283 348.573 234.456 349.814 236.94 350.642C239.373 351.52 242.013 351.932 244.704 351.932C249.88 351.932 253.814 350.434 256.556 347.383C259.3 344.385 260.748 339.993 260.955 334.203V323.87H314.782V333.324C314.782 342.99 313.023 352.243 309.555 361.033C306.087 369.819 301.067 377.572 294.597 384.344C288.231 391.116 280.779 396.338 272.187 400.008C263.596 403.73 254.435 405.539 244.704 405.539C234.922 405.539 225.554 403.73 216.601 400.008C207.647 396.338 199.676 391.116 192.741 384.344C185.754 377.469 180.319 369.666 176.489 360.876C172.659 352.088 170.745 342.835 170.745 333.169V323.87H224.571V333.944Z" fill="#FF4375"/>
<path d="M183.208 332.493V313.633C183.208 310.066 183.881 306.706 185.33 303.398C186.727 300.141 188.642 297.247 191.075 294.868C193.611 292.437 196.509 290.526 199.718 289.182C202.979 287.786 206.343 287.114 209.863 287.114C213.434 287.114 216.85 287.786 220.214 289.182C223.526 290.526 226.476 292.437 229.012 294.868C231.496 297.349 233.464 300.244 234.913 303.501C236.31 306.706 237.034 310.066 237.034 313.633V332.493H183.208Z" fill="#FF93B3"/>
<path d="M273.419 332.449V313.588C273.419 310.125 274.143 306.816 275.593 303.508C277.094 300.252 279.061 297.305 281.597 294.823C284.133 292.393 287.083 290.482 290.499 289.138C293.863 287.741 297.382 287.069 301.006 287.069C304.525 287.069 307.888 287.741 311.098 289.138C314.255 290.482 317.154 292.393 319.638 294.823C322.07 297.202 323.933 300.096 325.279 303.353C326.573 306.661 327.246 310.021 327.246 313.588V332.449H273.419Z" fill="#FF93B3"/>
<path d="M237.034 333.403C237.034 336.06 237.552 338.609 238.639 340.948C239.674 343.286 241.124 345.198 242.935 346.794C244.746 348.442 246.92 349.717 249.404 350.568C251.837 351.47 254.476 351.895 257.168 351.895C262.343 351.895 266.277 350.354 269.02 347.218C271.763 344.136 273.212 339.62 273.419 333.669V323.047H327.246V332.765C327.246 342.702 325.487 352.213 322.018 361.249C318.551 370.281 313.53 378.251 307.061 385.213C300.695 392.174 293.242 397.541 284.651 401.315C276.059 405.14 266.898 407 257.168 407C247.386 407 238.018 405.14 229.064 401.315C220.11 397.541 212.14 392.174 205.204 385.213C198.217 378.145 192.783 370.123 188.953 361.088C185.123 352.055 183.208 342.542 183.208 332.606V323.047H237.034V333.403Z" fill="#FF93B3"/>
<rect x="220.528" y="278.642" width="46.9398" height="59.2666" rx="23.4699" transform="rotate(180 220.528 278.642)" fill="#FF4375"/>
<rect x="232.928" y="278.642" width="46.9398" height="59.2666" rx="23.4699" transform="rotate(180 232.928 278.642)" fill="#FF93B3"/>
<rect x="312.637" y="278.642" width="46.9398" height="59.2666" rx="23.4699" transform="rotate(180 312.637 278.642)" fill="#FF4375"/>
<rect x="325.036" y="278.642" width="46.9398" height="59.2666" rx="23.4699" transform="rotate(180 325.036 278.642)" fill="#FF93B3"/>
</svg>
